<svg width="36" height="36" viewBox="0 0 36 36" fill="none" xmlns="http://www.w3.org/2000/svg">
<path fill-rule="evenodd" clip-rule="evenodd" d="M30.834 34.4969H5.17188C3.14719 34.4969 1.50586 32.8556 1.50586 30.8309V5.16876C1.50586 3.14408 3.14719 1.50275 5.17188 1.50275H30.834C32.8587 1.50275 34.5 3.14408 34.5 5.16876V30.8309C34.5 32.8556 32.8587 34.4969 30.834 34.4969ZM25.0196 29.9144H29.9157V19.8563C29.9157 15.6007 27.5033 13.543 24.1337 13.543C20.7626 13.543 19.3439 16.1682 19.3439 16.1682V14.0284H14.6253V29.9144H19.3439V21.5752C19.3439 19.3408 20.3724 18.0111 22.3411 18.0111C24.1508 18.0111 25.0196 19.2888 25.0196 21.5752V29.9144ZM6.08659 9.01676C6.08659 10.6356 7.38897 11.9482 8.99619 11.9482C10.6034 11.9482 11.905 10.6356 11.905 9.01676C11.905 7.39792 10.6034 6.08532 8.99619 6.08532C7.38897 6.08532 6.08659 7.39792 6.08659 9.01676ZM11.4799 29.9144H6.55976V14.0284H11.4799V29.9144Z" fill="#808080"/>
</svg>
