<svg width="35" height="35" viewBox="0 0 35 35" fill="none" xmlns="http://www.w3.org/2000/svg">
<path fill-rule="evenodd" clip-rule="evenodd" d="M17.5 0C7.83285 0 0 8.03071 0 17.9421C0 25.8676 5.01302 32.5959 11.9686 34.9672C12.8459 35.1307 13.1649 34.5817 13.1649 34.1028C13.1649 33.6764 13.1478 32.5492 13.1421 31.054C8.27148 32.1345 7.24609 28.6477 7.24609 28.6477C6.44857 26.5744 5.30355 26.0195 5.30355 26.0195C3.71419 24.9098 5.42318 24.9332 5.42318 24.9332C7.17773 25.0617 8.10059 26.7788 8.10059 26.7788C9.66146 29.5238 12.1965 28.7295 13.1934 28.2739C13.3529 27.1117 13.8086 26.3232 14.3042 25.8735C10.4191 25.4238 6.33464 23.8819 6.33464 17.0076C6.33464 15.0452 7.01823 13.4449 8.13477 12.1892C7.95817 11.7394 7.35433 9.91136 8.30567 7.44082C8.30567 7.44082 9.77539 6.9619 13.1193 9.28058C14.515 8.88343 16.0132 8.68485 17.5 8.67901C18.9868 8.68485 20.485 8.88343 21.8807 9.28058C25.2246 6.9619 26.6886 7.44082 26.6886 7.44082C27.6457 9.91136 27.0475 11.7394 26.8652 12.1892C27.9875 13.4449 28.6597 15.0452 28.6597 17.0076C28.6597 23.8994 24.5695 25.4121 20.673 25.8618C21.2996 26.4108 21.8579 27.5088 21.8579 29.1792C21.8579 31.5797 21.8408 33.5129 21.8408 34.1028C21.8408 34.5817 22.1541 35.1424 23.0428 34.9672C29.9927 32.5901 35 25.8676 35 17.9421C35 8.03071 27.1672 0 17.5 0Z" fill="black"/>
</svg>
