<svg width="35" height="35" viewBox="0 0 35 35" fill="none" xmlns="http://www.w3.org/2000/svg">
<path fill-rule="evenodd" clip-rule="evenodd" d="M29.9775 33.5386H5.02823C3.05979 33.5386 1.46405 31.9429 1.46405 29.9745V5.02518C1.46405 3.05674 3.05979 1.461 5.02823 1.461H29.9775C31.9459 1.461 33.5417 3.05674 33.5417 5.02518V29.9745C33.5417 31.9429 31.9459 33.5386 29.9775 33.5386ZM24.3246 29.0835H29.0847V19.3048C29.0847 15.1673 26.7393 13.1668 23.4634 13.1668C20.1859 13.1668 18.8065 15.7191 18.8065 15.7191V13.6387H14.2191V29.0835H18.8065V20.9759C18.8065 18.8035 19.8065 17.5108 21.7205 17.5108C23.4799 17.5108 24.3246 18.753 24.3246 20.9759V29.0835ZM5.91754 8.76629C5.91754 10.3402 7.18374 11.6163 8.74632 11.6163C10.3089 11.6163 11.5743 10.3402 11.5743 8.76629C11.5743 7.19242 10.3089 5.91628 8.74632 5.91628C7.18374 5.91628 5.91754 7.19242 5.91754 8.76629ZM11.1611 29.0835H6.37756V13.6387H11.1611V29.0835Z" fill="#181818"/>
</svg>
